<?xml version="1.0" encoding="UTF-8" standalone="no"?><!-- Generator: Gravit.io --><svg xmlns="http://www.w3.org/2000/svg" xmlns:xlink="http://www.w3.org/1999/xlink" style="isolation:isolate" viewBox="0 0 24 24" width="24pt" height="24pt"><defs><clipPath id="_clipPath_eRgJEVtUL9rqXVc7LlWokkoWjCR4gjFh"><rect width="24" height="24"/></clipPath></defs><g clip-path="url(#_clipPath_eRgJEVtUL9rqXVc7LlWokkoWjCR4gjFh)"><path d=" M 12 22.5 C 9.749 22.5 8.128 22.499 6.865 22.376 C 5.616 22.255 4.818 22.023 4.18 21.622 C 3.452 21.164 2.836 20.548 2.378 19.82 C 1.977 19.182 1.745 18.384 1.624 17.135 C 1.501 15.872 1.5 14.251 1.5 12 C 1.5 9.749 1.501 8.128 1.624 6.865 C 1.745 5.616 1.977 4.818 2.378 4.18 C 2.836 3.452 3.452 2.836 4.18 2.378 C 4.818 1.977 5.616 1.745 6.865 1.624 C 8.128 1.501 9.748 1.5 12 1.5 C 14.251 1.5 15.872 1.501 17.135 1.624 C 18.384 1.745 19.182 1.977 19.82 2.378 C 20.548 2.836 21.164 3.452 21.622 4.18 C 22.023 4.818 22.255 5.616 22.376 6.865 C 22.499 8.128 22.5 9.749 22.5 12 C 22.5 14.251 22.499 15.872 22.376 17.135 C 22.255 18.384 22.023 19.182 21.622 19.82 C 21.164 20.548 20.548 21.164 19.82 21.622 C 19.182 22.023 18.384 22.255 17.135 22.376 C 15.872 22.499 14.251 22.5 12 22.5 Z  M 11.991 20.75 C 11.02 20.75 10.057 20.75 9.086 20.732 C 8.395 20.724 7.704 20.697 7.012 20.636 C 6.584 20.601 6.164 20.522 5.752 20.417 C 5.525 20.356 5.306 20.26 5.105 20.138 C 4.606 19.822 4.177 19.394 3.862 18.895 C 3.74 18.694 3.644 18.475 3.582 18.248 C 3.477 17.836 3.399 17.416 3.364 16.987 C 3.302 16.296 3.276 15.605 3.267 14.914 C 3.25 13.942 3.25 12.971 3.25 12 C 3.25 11.029 3.25 10.057 3.267 9.086 C 3.276 8.395 3.302 7.704 3.364 7.012 C 3.399 6.584 3.477 6.164 3.582 5.752 C 3.644 5.525 3.74 5.306 3.862 5.105 C 4.177 4.606 4.606 4.177 5.105 3.862 C 5.306 3.74 5.525 3.644 5.752 3.582 C 6.164 3.477 6.584 3.399 7.012 3.364 C 7.704 3.302 8.395 3.276 9.086 3.267 C 10.057 3.25 11.029 3.25 12 3.25 C 12.971 3.25 13.942 3.25 14.914 3.267 C 15.605 3.276 16.296 3.302 16.987 3.364 C 17.416 3.399 17.836 3.477 18.248 3.582 C 18.475 3.644 18.694 3.74 18.895 3.862 C 19.394 4.177 19.822 4.606 20.137 5.105 C 20.26 5.306 20.356 5.525 20.417 5.752 C 20.522 6.164 20.601 6.584 20.636 7.012 C 20.697 7.704 20.724 8.395 20.733 9.086 C 20.75 10.057 20.75 11.02 20.75 11.991 C 20.75 11.991 20.75 12 20.75 12 L 20.75 12 L 20.75 12.009 C 20.75 12.98 20.75 13.942 20.733 14.914 C 20.724 15.605 20.697 16.296 20.636 16.987 C 20.601 17.416 20.522 17.836 20.417 18.248 C 20.356 18.475 20.26 18.694 20.137 18.895 C 19.822 19.394 19.394 19.822 18.895 20.138 C 18.694 20.26 18.475 20.356 18.248 20.417 C 17.836 20.522 17.416 20.601 16.987 20.636 C 16.296 20.697 15.605 20.724 14.914 20.732 C 13.942 20.75 12.98 20.75 12.009 20.75 C 12.009 20.75 12 20.75 12 20.75 L 12 20.75 L 11.991 20.75 Z " fill-rule="evenodd" fill="rgb(255,255,255)"/><path d=" M 6.356 12 C 6.356 10.504 6.951 9.069 8.01 8.01 C 9.069 6.951 10.504 6.356 12 6.356 C 13.496 6.356 14.931 6.951 15.99 8.01 C 17.049 9.069 17.644 10.504 17.644 12 C 17.644 13.496 17.049 14.931 15.99 15.99 C 14.931 17.049 13.496 17.644 12 17.644 C 10.504 17.644 9.069 17.049 8.01 15.99 C 6.951 14.931 6.356 13.496 6.356 12 Z  M 8.106 12 C 8.106 10.967 8.517 9.979 9.244 9.244 C 9.979 8.517 10.968 8.106 12 8.106 C 13.032 8.106 14.021 8.517 14.756 9.244 C 15.482 9.979 15.894 10.967 15.894 12 C 15.894 13.032 15.482 14.021 14.756 14.756 C 14.021 15.482 13.032 15.894 12 15.894 C 10.968 15.894 9.979 15.482 9.244 14.756 C 8.517 14.021 8.106 13.032 8.106 12 Z " fill-rule="evenodd" fill="rgb(255,255,255)"/><circle vector-effect="non-scaling-stroke" cx="18.204545454545453" cy="5.795454545454541" r="1.4318181818181834" fill="rgb(255,255,255)"/></g></svg>